<mxfile host="app.diagrams.net" modified="2023-04-16T13:57:11.021Z" agent="Mozilla/5.0 (Windows NT 10.0; Win64; x64) AppleWebKit/537.36 (KHTML, like Gecko) Chrome/111.0.0.0 Safari/537.36" version="21.1.8" etag="S2ycOyIh2PVHSIhtBzq6" type="github">
  <diagram name="Strona-1" id="ovQBvIDhcogMFg_1nrE-">
    <mxGraphModel>
      <root>
        <mxCell id="0" />
        <mxCell id="1" parent="0" />
      </root>
    </mxGraphModel>
  </diagram>
</mxfile>
